<svg width="128" height="32" viewBox="0 0 128 32" fill="none" xmlns="http://www.w3.org/2000/svg">
  <path
    d="M12.1987 11.6326C13.3199 12.2711 14.6171 12.6364 16.0002 12.6364C17.3833 12.6364 18.6805 12.2711 19.8017 11.6326L16.7267 8.55762L24.6497 6.19554V10.7141L23.2082 12.1555L25.1303 14.0776L27.0524 12.1555L25.6109 10.7141V5.90902L16.0005 3.02606L6.39014 5.90902L15.274 8.55762L12.1987 11.6326Z"
    fill="#9B8B5D" />
  <path
    d="M16.0001 13.5973C14.3678 13.5973 12.8546 13.0886 11.6096 12.2216L4.94824 18.883L15.0392 28.9739H15.5198V21.2252C14.6911 21.0118 14.0783 20.2592 14.0783 19.3635C14.0783 18.3022 14.9391 17.4415 16.0004 17.4415C17.0617 17.4415 17.9225 18.3022 17.9225 19.3635C17.9225 20.2592 17.3097 21.0118 16.481 21.2252V28.9739H16.9616L27.0525 18.883L20.3912 12.2216C19.1462 13.0886 17.633 13.5973 16.0007 13.5973H16.0001Z"
    fill="#9B8B5D" />
  <path
    d="M43.392 21.064V18.952H45.808C46.416 18.952 46.9547 18.8613 47.424 18.68C47.904 18.488 48.3093 18.2213 48.64 17.88C48.9707 17.5387 49.2213 17.1387 49.392 16.68C49.5733 16.2107 49.664 15.6933 49.664 15.128C49.664 14.5413 49.5733 14.0187 49.392 13.56C49.2213 13.0907 48.9707 12.6907 48.64 12.36C48.3093 12.0293 47.904 11.7787 47.424 11.608C46.9547 11.4373 46.416 11.352 45.808 11.352H43.392V9.24H45.664C46.72 9.24 47.6427 9.39467 48.432 9.704C49.2213 10.0133 49.8773 10.44 50.4 10.984C50.9227 11.5173 51.312 12.1307 51.568 12.824C51.8347 13.5067 51.968 14.216 51.968 14.952V15.304C51.968 16.008 51.8347 16.7013 51.568 17.384C51.312 18.0667 50.9227 18.6853 50.4 19.24C49.8773 19.7947 49.2213 20.2373 48.432 20.568C47.6427 20.8987 46.72 21.064 45.664 21.064H43.392ZM41.44 21.064V9.24H43.712V21.064H41.44ZM54.2425 21V12.312H56.4665V21H54.2425ZM53.0265 13.976V12.312H56.4665V13.976H53.0265ZM55.0585 11.272C54.6212 11.272 54.2958 11.16 54.0825 10.936C53.8798 10.7013 53.7785 10.408 53.7785 10.056C53.7785 9.704 53.8798 9.416 54.0825 9.192C54.2958 8.968 54.6212 8.856 55.0585 8.856C55.4958 8.856 55.8158 8.968 56.0185 9.192C56.2212 9.416 56.3225 9.704 56.3225 10.056C56.3225 10.408 56.2212 10.7013 56.0185 10.936C55.8158 11.16 55.4958 11.272 55.0585 11.272ZM62.4216 24.424C62.0056 24.424 61.579 24.408 61.1416 24.376C60.715 24.344 60.315 24.3013 59.9416 24.248V22.392C60.3256 22.4347 60.7363 22.472 61.1736 22.504C61.611 22.5467 62.0216 22.568 62.4056 22.568C63.1203 22.568 63.6963 22.4827 64.1336 22.312C64.5816 22.1413 64.907 21.8693 65.1096 21.496C65.323 21.1333 65.4296 20.6693 65.4296 20.104V18.392L65.9096 17.304C65.8776 18.104 65.7123 18.7867 65.4136 19.352C65.115 19.9067 64.7096 20.3333 64.1976 20.632C63.6856 20.92 63.0936 21.064 62.4216 21.064C61.8243 21.064 61.2803 20.952 60.7896 20.728C60.3096 20.504 59.8936 20.1947 59.5416 19.8C59.2003 19.4053 58.9336 18.9413 58.7416 18.408C58.5496 17.8747 58.4536 17.304 58.4536 16.696V16.36C58.4536 15.752 58.5496 15.1867 58.7416 14.664C58.9443 14.1307 59.227 13.6667 59.5896 13.272C59.9523 12.8773 60.3843 12.5733 60.8856 12.36C61.387 12.1467 61.9416 12.04 62.5496 12.04C63.2643 12.04 63.883 12.1947 64.4056 12.504C64.939 12.8133 65.355 13.2613 65.6536 13.848C65.9523 14.4347 66.1176 15.1547 66.1496 16.008L65.7656 16.072V12.312H67.5256V19.976C67.5256 21.032 67.3443 21.8853 66.9816 22.536C66.619 23.1867 66.059 23.6613 65.3016 23.96C64.555 24.2693 63.595 24.424 62.4216 24.424ZM63.0616 19.16C63.4883 19.16 63.8776 19.064 64.2296 18.872C64.5816 18.68 64.8643 18.4027 65.0776 18.04C65.291 17.6773 65.3976 17.24 65.3976 16.728V16.168C65.3976 15.6773 65.2856 15.2613 65.0616 14.92C64.8483 14.5787 64.5656 14.3227 64.2136 14.152C63.8616 13.9707 63.4776 13.88 63.0616 13.88C62.5923 13.88 62.1763 13.992 61.8136 14.216C61.4616 14.4293 61.1843 14.7333 60.9816 15.128C60.779 15.5227 60.6776 15.992 60.6776 16.536C60.6776 17.0693 60.779 17.5333 60.9816 17.928C61.1843 18.3227 61.4616 18.6267 61.8136 18.84C62.1763 19.0533 62.5923 19.16 63.0616 19.16ZM70.3675 21V12.312H72.5915V21H70.3675ZM69.1515 13.976V12.312H72.5915V13.976H69.1515ZM71.1835 11.272C70.7462 11.272 70.4208 11.16 70.2075 10.936C70.0048 10.7013 69.9035 10.408 69.9035 10.056C69.9035 9.704 70.0048 9.416 70.2075 9.192C70.4208 8.968 70.7462 8.856 71.1835 8.856C71.6208 8.856 71.9408 8.968 72.1435 9.192C72.3462 9.416 72.4475 9.704 72.4475 10.056C72.4475 10.408 72.3462 10.7013 72.1435 10.936C71.9408 11.16 71.6208 11.272 71.1835 11.272ZM75.2666 21V9.32H77.4906V21H75.2666ZM74.1786 10.984V9.32H77.4906V10.984H74.1786ZM85.2936 21V18.424H84.9256V15.56C84.9256 15.0587 84.803 14.6853 84.5576 14.44C84.3123 14.1947 83.9336 14.072 83.4216 14.072C83.155 14.072 82.835 14.0773 82.4616 14.088C82.0883 14.0987 81.7096 14.1147 81.3256 14.136C80.9523 14.1467 80.6163 14.1627 80.3176 14.184V12.296C80.563 12.2747 80.8403 12.2533 81.1496 12.232C81.459 12.2107 81.7736 12.2 82.0936 12.2C82.4243 12.1893 82.7336 12.184 83.0216 12.184C83.9176 12.184 84.659 12.3013 85.2456 12.536C85.843 12.7707 86.291 13.1387 86.5896 13.64C86.899 14.1413 87.0536 14.7973 87.0536 15.608V21H85.2936ZM82.4936 21.224C81.8643 21.224 81.3096 21.112 80.8296 20.888C80.3603 20.664 79.9923 20.344 79.7256 19.928C79.4696 19.512 79.3416 19.0107 79.3416 18.424C79.3416 17.784 79.4963 17.2613 79.8056 16.856C80.1256 16.4507 80.5683 16.1467 81.1336 15.944C81.7096 15.7413 82.3816 15.64 83.1496 15.64H85.1656V16.968H83.1176C82.6056 16.968 82.211 17.096 81.9336 17.352C81.667 17.5973 81.5336 17.9173 81.5336 18.312C81.5336 18.7067 81.667 19.0267 81.9336 19.272C82.211 19.5173 82.6056 19.64 83.1176 19.64C83.427 19.64 83.7096 19.5867 83.9656 19.48C84.2323 19.3627 84.451 19.1707 84.6216 18.904C84.803 18.6267 84.9043 18.2533 84.9256 17.784L85.4696 18.408C85.4163 19.016 85.267 19.528 85.0216 19.944C84.787 20.36 84.4563 20.68 84.0296 20.904C83.6136 21.1173 83.1016 21.224 82.4936 21.224ZM92.3025 21L93.9505 12.6H96.5105L98.4145 21H96.6545L94.7185 12.648H95.6465L93.9345 21H92.3025ZM91.6465 21L91.6305 19.176H93.4065V21H91.6465ZM90.7505 21L88.3825 12.312H90.5425L92.7985 21H90.7505ZM97.2145 21V19.176H98.9905L98.9745 21H97.2145ZM97.9185 21L99.9185 12.312H101.935L99.8385 21H97.9185ZM103.43 24.424V22.52H105.062C105.371 22.52 105.627 22.4773 105.83 22.392C106.043 22.3173 106.219 22.1893 106.358 22.008C106.497 21.8373 106.603 21.5973 106.678 21.288L109.014 12.312H111.142L108.566 21.768C108.395 22.4187 108.155 22.936 107.846 23.32C107.537 23.7147 107.137 23.9973 106.646 24.168C106.166 24.3387 105.569 24.424 104.854 24.424H103.43ZM106.134 20.808V19.048H107.99V20.808H106.134ZM105.382 20.808L102.566 12.312H104.806L107.478 20.808H105.382ZM116.371 21.304C115.624 21.304 114.968 21.176 114.403 20.92C113.848 20.664 113.384 20.3227 113.011 19.896C112.648 19.4587 112.371 18.9733 112.179 18.44C111.997 17.9067 111.907 17.3627 111.907 16.808V16.504C111.907 15.928 111.997 15.3733 112.179 14.84C112.371 14.296 112.648 13.816 113.011 13.4C113.384 12.9733 113.843 12.6373 114.387 12.392C114.931 12.136 115.56 12.008 116.275 12.008C117.213 12.008 117.997 12.216 118.627 12.632C119.267 13.0373 119.747 13.576 120.067 14.248C120.387 14.9093 120.547 15.624 120.547 16.392V17.192H112.851V15.832H119.155L118.467 16.504C118.467 15.9493 118.387 15.4747 118.227 15.08C118.067 14.6853 117.821 14.3813 117.491 14.168C117.171 13.9547 116.765 13.848 116.275 13.848C115.784 13.848 115.368 13.96 115.027 14.184C114.685 14.408 114.424 14.7333 114.243 15.16C114.072 15.576 113.987 16.0773 113.987 16.664C113.987 17.208 114.072 17.6933 114.243 18.12C114.413 18.536 114.675 18.8667 115.027 19.112C115.379 19.3467 115.827 19.464 116.371 19.464C116.915 19.464 117.357 19.3573 117.699 19.144C118.04 18.92 118.259 18.648 118.355 18.328H120.403C120.275 18.9253 120.029 19.448 119.667 19.896C119.304 20.344 118.84 20.6907 118.275 20.936C117.72 21.1813 117.085 21.304 116.371 21.304ZM122.405 21V12.312H124.165V15.992H124.117C124.117 14.744 124.383 13.8 124.917 13.16C125.45 12.52 126.234 12.2 127.269 12.2H127.589V14.136H126.981C126.234 14.136 125.653 14.3387 125.237 14.744C124.831 15.1387 124.629 15.7147 124.629 16.472V21H122.405Z"
    fill="#2D2D2D" />
</svg>