<svg width="32" height="32" viewBox="0 0 32 32" fill="none" xmlns="http://www.w3.org/2000/svg">
  <path
    d="M11.8981 11.2872C13.108 11.9762 14.5077 12.3704 16.0002 12.3704C17.4927 12.3704 18.8925 11.9762 20.1024 11.2872L16.7842 7.96903L25.3338 5.42015V10.296L23.7783 11.8515L25.8524 13.9256L27.9265 11.8515L26.371 10.296V5.11097L16.0006 2L5.63013 5.11097L15.2166 7.96903L11.8984 11.2872H11.8981Z"
    fill="white" />
  <path
    d="M16.0001 13.4073C14.2387 13.4073 12.6059 12.8583 11.2624 11.9228L4.07422 19.1109L14.9632 30H15.4818V21.6384C14.5876 21.4082 13.9264 20.5961 13.9264 19.6296C13.9264 18.4843 14.8552 17.5555 16.0004 17.5555C17.1457 17.5555 18.0745 18.4843 18.0745 19.6296C18.0745 20.5961 17.4133 21.4082 16.519 21.6384V30H17.0376L27.9267 19.1109L20.7385 11.9228C19.395 12.8583 17.7622 13.4073 16.0008 13.4073H16.0001Z"
    fill="white" />
</svg>