<svg width="24" height="24" viewBox="0 0 24 24" fill="none" xmlns="http://www.w3.org/2000/svg">
<path d="M16.2001 17.4L6.60007 7.8C6.27207 7.472 6.27207 6.928 6.60007 6.6C6.92807 6.272 7.47207 6.272 7.80007 6.6L17.4001 16.2C17.7281 16.528 17.7281 17.072 17.4001 17.4C17.0721 17.728 16.5281 17.728 16.2001 17.4Z" fill="#2D2D2D"/>
<path d="M6.60017 17.4C6.27217 17.072 6.27217 16.528 6.60017 16.2L16.2002 6.6C16.5282 6.272 17.0722 6.272 17.4002 6.6C17.7282 6.928 17.7282 7.472 17.4002 7.8L7.80017 17.4C7.47217 17.728 6.92817 17.728 6.60017 17.4Z" fill="#2D2D2D"/>
</svg>
