<svg width="24" height="24" viewBox="0 0 24 24" fill="none" xmlns="http://www.w3.org/2000/svg">
  <path opacity="0.4"
    d="M16.1898 2H7.81978C4.17978 2 2.00977 4.17 2.00977 7.81V16.18C2.00977 19.82 4.17978 21.99 7.81978 21.99H16.1898C19.8298 21.99 21.9998 19.82 21.9998 16.18V7.81C21.9998 4.17 19.8298 2 16.1898 2Z"
    fill="white" />
  <path
    d="M9.17009 14.09C9.36009 14.09 9.55009 14.02 9.70009 13.87L14.0801 9.49004V11.92C14.0801 12.33 14.4201 12.67 14.8301 12.67C15.2401 12.67 15.5801 12.33 15.5801 11.92V7.68005C15.5801 7.58005 15.5601 7.49005 15.5201 7.39005C15.4401 7.21005 15.3001 7.06005 15.1101 6.98005C15.0201 6.94005 14.9201 6.92004 14.8201 6.92004H10.5801C10.1701 6.92004 9.83009 7.26004 9.83009 7.67004C9.83009 8.08004 10.1701 8.42004 10.5801 8.42004H13.0101L8.6301 12.8C8.3401 13.09 8.3401 13.57 8.6301 13.86C8.7901 14.02 8.98009 14.09 9.17009 14.09Z"
    fill="white" />
  <path
    d="M18.7102 16.2801C18.5802 15.8901 18.1602 15.6801 17.7602 15.8101C14.0402 17.0501 9.95018 17.0501 6.23018 15.8101C5.84018 15.6801 5.41018 15.8901 5.28018 16.2801C5.15018 16.6701 5.36018 17.1001 5.75018 17.2301C7.76018 17.9001 9.87019 18.2401 11.9902 18.2401C14.1102 18.2401 16.2202 17.9001 18.2302 17.2301C18.6302 17.0901 18.8402 16.6701 18.7102 16.2801Z"
    fill="white" />
</svg>